<svg width="240" height="40" viewBox="0 0 240 40" fill="none" xmlns="http://www.w3.org/2000/svg">
<rect width="40" height="40" rx="20" fill="#2C6E49"/>
<path d="M7.16921 24.3053C6.52308 24.3053 6.00151 24.2275 5.60449 24.0718C5.20747 23.9083 4.91555 23.6397 4.72871 23.2661C4.54967 22.8846 4.46014 22.3708 4.46014 21.7247V16.0964H6.20002V21.7948C6.20002 22.0984 6.27786 22.3319 6.43356 22.4954C6.59704 22.6511 6.82668 22.7289 7.1225 22.7289H8.06834V24.3053H7.16921ZM3.49095 19.1908V17.8246H8.06834V19.1908H3.49095ZM11.1347 24.4221C10.3951 24.4221 9.82683 24.1846 9.42981 23.7098C9.03279 23.2271 8.83428 22.5032 8.83428 21.5379V17.8246H10.7026V21.6313C10.7026 21.9738 10.7999 22.2463 10.9945 22.4487C11.1891 22.6511 11.4499 22.7523 11.7769 22.7523C12.1116 22.7523 12.3841 22.6472 12.5943 22.437C12.8045 22.2268 12.9096 21.9427 12.9096 21.5846V17.8246H14.7779V24.2236H13.2949V21.5262H13.4233C13.4233 22.1723 13.3377 22.7133 13.1665 23.1493C13.003 23.5774 12.7578 23.8966 12.4308 24.1068C12.1038 24.317 11.699 24.4221 11.2164 24.4221H11.1347ZM19.0579 24.3053C18.4117 24.3053 17.8902 24.2275 17.4932 24.0718C17.0961 23.9083 16.8042 23.6397 16.6174 23.2661C16.4383 22.8846 16.3488 22.3708 16.3488 21.7247V16.0964H18.0887V21.7948C18.0887 22.0984 18.1665 22.3319 18.3222 22.4954C18.4857 22.6511 18.7153 22.7289 19.0112 22.7289H19.957V24.3053H19.0579ZM15.3796 19.1908V17.8246H19.957V19.1908H15.3796ZM23.3625 26.7692C23.0511 26.7692 22.7319 26.7575 22.405 26.7341C22.078 26.7108 21.7783 26.6796 21.5059 26.6407V25.0643C21.7783 25.1032 22.078 25.1344 22.405 25.1577C22.7397 25.1889 23.0433 25.2044 23.3158 25.2044C23.8218 25.2044 24.2305 25.1461 24.5419 25.0293C24.861 24.9125 25.0946 24.7335 25.2425 24.4921C25.3904 24.2586 25.4644 23.955 25.4644 23.5813V22.3085L25.803 21.5612C25.7874 22.1295 25.6745 22.616 25.4644 23.0208C25.262 23.4256 24.9778 23.737 24.6119 23.955C24.2461 24.1652 23.8101 24.2703 23.3041 24.2703C22.8682 24.2703 22.4712 24.1924 22.1131 24.0367C21.7627 23.8733 21.463 23.6475 21.2139 23.3595C20.9648 23.0714 20.7741 22.7367 20.6418 22.3552C20.5094 21.966 20.4432 21.5456 20.4432 21.0941V20.8256C20.4432 20.374 20.5133 19.9537 20.6534 19.5644C20.7936 19.1752 20.996 18.8366 21.2606 18.5485C21.5253 18.2605 21.8406 18.0386 22.2065 17.883C22.5724 17.7195 22.9772 17.6377 23.4209 17.6377C23.9347 17.6377 24.3784 17.7506 24.7521 17.9764C25.1335 18.2021 25.4332 18.533 25.6512 18.9689C25.8692 19.4049 25.9859 19.9303 26.0015 20.5453L25.7446 20.6154V17.8246H27.2276V23.4646C27.2276 24.2508 27.0875 24.8853 26.8072 25.3679C26.527 25.8506 26.0988 26.2048 25.5227 26.4305C24.9545 26.6563 24.2344 26.7692 23.3625 26.7692ZM23.888 22.6939C24.176 22.6939 24.4368 22.6316 24.6703 22.5071C24.9039 22.3747 25.0868 22.1879 25.2191 21.9466C25.3593 21.7052 25.4293 21.4133 25.4293 21.0708V20.7321C25.4293 20.3974 25.3554 20.1172 25.2075 19.8914C25.0673 19.6579 24.8805 19.4827 24.647 19.3659C24.4134 19.2414 24.1643 19.1791 23.8996 19.1791C23.5883 19.1791 23.3119 19.2531 23.0706 19.401C22.8292 19.5489 22.6424 19.7552 22.5101 20.0198C22.3777 20.2845 22.3116 20.5959 22.3116 20.954C22.3116 21.3199 22.3777 21.6352 22.5101 21.8998C22.6502 22.1567 22.837 22.3552 23.0706 22.4954C23.3119 22.6277 23.5844 22.6939 23.888 22.6939ZM31.6129 24.4454C31.0524 24.4454 30.5541 24.3598 30.1182 24.1885C29.6823 24.0095 29.3125 23.7682 29.0089 23.4646C28.7131 23.161 28.4873 22.8145 28.3316 22.4253C28.1759 22.0283 28.0981 21.6118 28.0981 21.1759V20.9073C28.0981 20.4636 28.1759 20.0432 28.3316 19.6462C28.4951 19.2414 28.7286 18.8872 29.0322 18.5836C29.3436 18.28 29.7173 18.0425 30.1532 17.8713C30.5892 17.6922 31.0757 17.6027 31.6129 17.6027C32.1656 17.6027 32.656 17.6922 33.0842 17.8713C33.5201 18.0425 33.8899 18.28 34.1935 18.5836C34.4971 18.8872 34.7306 19.2414 34.8941 19.6462C35.0576 20.0432 35.1393 20.4636 35.1393 20.9073V21.1759C35.1393 21.6118 35.0615 22.0283 34.9058 22.4253C34.7501 22.8145 34.5204 23.161 34.2168 23.4646C33.921 23.7682 33.5551 24.0095 33.1192 24.1885C32.6833 24.3598 32.1811 24.4454 31.6129 24.4454ZM31.6129 22.869C31.9787 22.869 32.2823 22.7912 32.5237 22.6355C32.765 22.4798 32.9479 22.2618 33.0725 21.9816C33.2048 21.7013 33.271 21.3899 33.271 21.0474C33.271 20.6815 33.2048 20.3624 33.0725 20.0899C32.9401 19.8097 32.7494 19.5878 32.5003 19.4243C32.259 19.2608 31.9632 19.1791 31.6129 19.1791C31.2703 19.1791 30.9745 19.2608 30.7254 19.4243C30.4763 19.5878 30.2856 19.8097 30.1532 20.0899C30.0287 20.3624 29.9664 20.6815 29.9664 21.0474C29.9664 21.3899 30.0287 21.7013 30.1532 21.9816C30.2778 22.2618 30.4646 22.4798 30.7137 22.6355C30.9628 22.7912 31.2625 22.869 31.6129 22.869Z" fill="white"/>
<path d="M50.54 27V14.86H53.82V27H50.54ZM46.44 15.26V12.4H57.94V15.26H46.44ZM62.0639 27.34C60.7972 27.34 59.8239 26.9333 59.1439 26.12C58.4639 25.2933 58.1239 24.0533 58.1239 22.4V16.04H61.3239V22.56C61.3239 23.1467 61.4906 23.6133 61.8239 23.96C62.1572 24.3067 62.6039 24.48 63.1639 24.48C63.7372 24.48 64.2039 24.3 64.5639 23.94C64.9239 23.58 65.1039 23.0933 65.1039 22.48V16.04H68.3039V27H65.7639V22.38H65.9839C65.9839 23.4867 65.8372 24.4133 65.5439 25.16C65.2639 25.8933 64.8439 26.44 64.2839 26.8C63.7239 27.16 63.0306 27.34 62.2039 27.34H62.0639ZM75.6345 27.14C74.5279 27.14 73.6345 27.0067 72.9545 26.74C72.2745 26.46 71.7745 26 71.4545 25.36C71.1479 24.7067 70.9945 23.8267 70.9945 22.72V13.08H73.9745V22.84C73.9745 23.36 74.1079 23.76 74.3745 24.04C74.6545 24.3067 75.0479 24.44 75.5545 24.44H77.1745V27.14H75.6345ZM69.3345 18.38V16.04H77.1745V18.38H69.3345ZM83.0073 31.36C82.474 31.36 81.9273 31.34 81.3673 31.3C80.8073 31.26 80.294 31.2067 79.8273 31.14V28.44C80.294 28.5067 80.8073 28.56 81.3673 28.6C81.9407 28.6533 82.4607 28.68 82.9273 28.68C83.794 28.68 84.494 28.58 85.0273 28.38C85.574 28.18 85.974 27.8733 86.2273 27.46C86.4807 27.06 86.6073 26.54 86.6073 25.9V23.72L87.1873 22.44C87.1607 23.4133 86.9673 24.2467 86.6073 24.94C86.2607 25.6333 85.774 26.1667 85.1473 26.54C84.5207 26.9 83.774 27.08 82.9073 27.08C82.1607 27.08 81.4807 26.9467 80.8673 26.68C80.2673 26.4 79.754 26.0133 79.3273 25.52C78.9007 25.0267 78.574 24.4533 78.3473 23.8C78.1207 23.1333 78.0073 22.4133 78.0073 21.64V21.18C78.0073 20.4067 78.1273 19.6867 78.3673 19.02C78.6073 18.3533 78.954 17.7733 79.4073 17.28C79.8607 16.7867 80.4007 16.4067 81.0273 16.14C81.654 15.86 82.3473 15.72 83.1073 15.72C83.9873 15.72 84.7473 15.9133 85.3873 16.3C86.0407 16.6867 86.554 17.2533 86.9273 18C87.3007 18.7467 87.5007 19.6467 87.5273 20.7L87.0873 20.82V16.04H89.6273V25.7C89.6273 27.0467 89.3873 28.1333 88.9073 28.96C88.4273 29.7867 87.694 30.3933 86.7073 30.78C85.734 31.1667 84.5007 31.36 83.0073 31.36ZM83.9073 24.38C84.4007 24.38 84.8473 24.2733 85.2473 24.06C85.6473 23.8333 85.9607 23.5133 86.1873 23.1C86.4273 22.6867 86.5473 22.1867 86.5473 21.6V21.02C86.5473 20.4467 86.4207 19.9667 86.1673 19.58C85.9273 19.18 85.6073 18.88 85.2073 18.68C84.8073 18.4667 84.3807 18.36 83.9273 18.36C83.394 18.36 82.9207 18.4867 82.5073 18.74C82.094 18.9933 81.774 19.3467 81.5473 19.8C81.3207 20.2533 81.2073 20.7867 81.2073 21.4C81.2073 22.0267 81.3207 22.5667 81.5473 23.02C81.7873 23.46 82.1073 23.8 82.5073 24.04C82.9207 24.2667 83.3873 24.38 83.9073 24.38ZM97.1383 27.38C96.1783 27.38 95.3249 27.2333 94.5783 26.94C93.8316 26.6333 93.1983 26.22 92.6783 25.7C92.1716 25.18 91.7849 24.5867 91.5183 23.92C91.2516 23.24 91.1183 22.5267 91.1183 21.78V21.32C91.1183 20.56 91.2516 19.84 91.5183 19.16C91.7983 18.4667 92.1983 17.86 92.7183 17.34C93.2516 16.82 93.8916 16.4133 94.6383 16.12C95.3849 15.8133 96.2183 15.66 97.1383 15.66C98.0849 15.66 98.9249 15.8133 99.6583 16.12C100.405 16.4133 101.038 16.82 101.558 17.34C102.078 17.86 102.478 18.4667 102.758 19.16C103.038 19.84 103.178 20.56 103.178 21.32V21.78C103.178 22.5267 103.045 23.24 102.778 23.92C102.512 24.5867 102.118 25.18 101.598 25.7C101.092 26.22 100.465 26.6333 99.7183 26.94C98.9716 27.2333 98.1116 27.38 97.1383 27.38ZM97.1383 24.68C97.7649 24.68 98.2849 24.5467 98.6983 24.28C99.1116 24.0133 99.4249 23.64 99.6383 23.16C99.8649 22.68 99.9783 22.1467 99.9783 21.56C99.9783 20.9333 99.8649 20.3867 99.6383 19.92C99.4116 19.44 99.0849 19.06 98.6583 18.78C98.2449 18.5 97.7383 18.36 97.1383 18.36C96.5516 18.36 96.0449 18.5 95.6183 18.78C95.1916 19.06 94.8649 19.44 94.6383 19.92C94.4249 20.3867 94.3183 20.9333 94.3183 21.56C94.3183 22.1467 94.4249 22.68 94.6383 23.16C94.8516 23.64 95.1716 24.0133 95.5983 24.28C96.0249 24.5467 96.5383 24.68 97.1383 24.68ZM111.491 27V14.86H114.771V27H111.491ZM107.391 15.26V12.4H118.891V15.26H107.391ZM123.807 27.38C122.874 27.38 122.047 27.22 121.327 26.9C120.621 26.58 120.027 26.1533 119.547 25.62C119.081 25.0733 118.721 24.4667 118.467 23.8C118.227 23.12 118.107 22.4267 118.107 21.72V21.32C118.107 20.5867 118.227 19.8867 118.467 19.22C118.721 18.54 119.081 17.9333 119.547 17.4C120.014 16.8667 120.594 16.4467 121.287 16.14C121.994 15.82 122.794 15.66 123.687 15.66C124.861 15.66 125.847 15.9267 126.647 16.46C127.461 16.98 128.081 17.6667 128.507 18.52C128.934 19.36 129.147 20.28 129.147 21.28V22.36H119.447V20.54H127.207L126.167 21.38C126.167 20.7267 126.074 20.1667 125.887 19.7C125.701 19.2333 125.421 18.88 125.047 18.64C124.687 18.3867 124.234 18.26 123.687 18.26C123.127 18.26 122.654 18.3867 122.267 18.64C121.881 18.8933 121.587 19.2667 121.387 19.76C121.187 20.24 121.087 20.8333 121.087 21.54C121.087 22.1933 121.181 22.7667 121.367 23.26C121.554 23.74 121.847 24.1133 122.247 24.38C122.647 24.6467 123.167 24.78 123.807 24.78C124.394 24.78 124.874 24.6667 125.247 24.44C125.621 24.2133 125.874 23.9333 126.007 23.6H128.947C128.787 24.3333 128.474 24.9867 128.007 25.56C127.541 26.1333 126.954 26.58 126.247 26.9C125.541 27.22 124.727 27.38 123.807 27.38ZM135.588 27.38C134.641 27.38 133.814 27.2267 133.108 26.92C132.414 26.6 131.834 26.1733 131.368 25.64C130.901 25.1067 130.554 24.5067 130.328 23.84C130.101 23.16 129.988 22.46 129.988 21.74V21.36C129.988 20.6133 130.108 19.9 130.348 19.22C130.588 18.5267 130.941 17.9133 131.408 17.38C131.874 16.8467 132.454 16.4267 133.148 16.12C133.854 15.8133 134.661 15.66 135.568 15.66C136.554 15.66 137.428 15.8533 138.188 16.24C138.948 16.6133 139.554 17.14 140.008 17.82C140.461 18.5 140.714 19.28 140.768 20.16H137.628C137.574 19.6667 137.374 19.2533 137.028 18.92C136.694 18.5733 136.208 18.4 135.568 18.4C135.034 18.4 134.588 18.5333 134.228 18.8C133.881 19.0667 133.621 19.4333 133.448 19.9C133.274 20.3667 133.188 20.92 133.188 21.56C133.188 22.1467 133.268 22.68 133.428 23.16C133.588 23.6267 133.841 23.9933 134.188 24.26C134.548 24.5133 135.014 24.64 135.588 24.64C136.014 24.64 136.374 24.5667 136.668 24.42C136.974 24.26 137.214 24.0467 137.388 23.78C137.574 23.5 137.688 23.18 137.728 22.82H140.848C140.808 23.7267 140.554 24.5267 140.088 25.22C139.621 25.9 139.001 26.4333 138.228 26.82C137.454 27.1933 136.574 27.38 135.588 27.38ZM142.294 27V12.4H145.494V20.82H145.014C145.014 19.7133 145.154 18.78 145.434 18.02C145.714 17.26 146.128 16.6867 146.674 16.3C147.221 15.9 147.908 15.7 148.734 15.7H148.874C150.088 15.7 151.014 16.1333 151.654 17C152.294 17.8533 152.614 19.1067 152.614 20.76V27H149.414V20.56C149.414 19.96 149.234 19.48 148.874 19.12C148.528 18.7467 148.068 18.56 147.494 18.56C146.894 18.56 146.408 18.7533 146.034 19.14C145.674 19.5267 145.494 20.04 145.494 20.68V27H142.294ZM154.741 27V16.04H157.281V20.74H157.101C157.101 19.62 157.241 18.6867 157.521 17.94C157.815 17.1933 158.255 16.6333 158.841 16.26C159.428 15.8867 160.141 15.7 160.981 15.7H161.121C162.401 15.7 163.375 16.12 164.041 16.96C164.721 17.7867 165.061 19.0467 165.061 20.74V27H161.861V20.56C161.861 19.9733 161.688 19.4933 161.341 19.12C160.995 18.7467 160.528 18.56 159.941 18.56C159.341 18.56 158.855 18.7533 158.481 19.14C158.121 19.5133 157.941 20.0067 157.941 20.62V27H154.741ZM172.528 27.38C171.568 27.38 170.715 27.2333 169.968 26.94C169.221 26.6333 168.588 26.22 168.068 25.7C167.561 25.18 167.175 24.5867 166.908 23.92C166.641 23.24 166.508 22.5267 166.508 21.78V21.32C166.508 20.56 166.641 19.84 166.908 19.16C167.188 18.4667 167.588 17.86 168.108 17.34C168.641 16.82 169.281 16.4133 170.028 16.12C170.775 15.8133 171.608 15.66 172.528 15.66C173.475 15.66 174.315 15.8133 175.048 16.12C175.795 16.4133 176.428 16.82 176.948 17.34C177.468 17.86 177.868 18.4667 178.148 19.16C178.428 19.84 178.568 20.56 178.568 21.32V21.78C178.568 22.5267 178.435 23.24 178.168 23.92C177.901 24.5867 177.508 25.18 176.988 25.7C176.481 26.22 175.855 26.6333 175.108 26.94C174.361 27.2333 173.501 27.38 172.528 27.38ZM172.528 24.68C173.155 24.68 173.675 24.5467 174.088 24.28C174.501 24.0133 174.815 23.64 175.028 23.16C175.255 22.68 175.368 22.1467 175.368 21.56C175.368 20.9333 175.255 20.3867 175.028 19.92C174.801 19.44 174.475 19.06 174.048 18.78C173.635 18.5 173.128 18.36 172.528 18.36C171.941 18.36 171.435 18.5 171.008 18.78C170.581 19.06 170.255 19.44 170.028 19.92C169.815 20.3867 169.708 20.9333 169.708 21.56C169.708 22.1467 169.815 22.68 170.028 23.16C170.241 23.64 170.561 24.0133 170.988 24.28C171.415 24.5467 171.928 24.68 172.528 24.68ZM180.341 27V12.4H183.561V27H180.341ZM179.041 14.76V12.4H183.561V14.76H179.041ZM191.25 27.38C190.29 27.38 189.437 27.2333 188.69 26.94C187.943 26.6333 187.31 26.22 186.79 25.7C186.283 25.18 185.897 24.5867 185.63 23.92C185.363 23.24 185.23 22.5267 185.23 21.78V21.32C185.23 20.56 185.363 19.84 185.63 19.16C185.91 18.4667 186.31 17.86 186.83 17.34C187.363 16.82 188.003 16.4133 188.75 16.12C189.497 15.8133 190.33 15.66 191.25 15.66C192.197 15.66 193.037 15.8133 193.77 16.12C194.517 16.4133 195.15 16.82 195.67 17.34C196.19 17.86 196.59 18.4667 196.87 19.16C197.15 19.84 197.29 20.56 197.29 21.32V21.78C197.29 22.5267 197.157 23.24 196.89 23.92C196.623 24.5867 196.23 25.18 195.71 25.7C195.203 26.22 194.577 26.6333 193.83 26.94C193.083 27.2333 192.223 27.38 191.25 27.38ZM191.25 24.68C191.877 24.68 192.397 24.5467 192.81 24.28C193.223 24.0133 193.537 23.64 193.75 23.16C193.977 22.68 194.09 22.1467 194.09 21.56C194.09 20.9333 193.977 20.3867 193.75 19.92C193.523 19.44 193.197 19.06 192.77 18.78C192.357 18.5 191.85 18.36 191.25 18.36C190.663 18.36 190.157 18.5 189.73 18.78C189.303 19.06 188.977 19.44 188.75 19.92C188.537 20.3867 188.43 20.9333 188.43 21.56C188.43 22.1467 188.537 22.68 188.75 23.16C188.963 23.64 189.283 24.0133 189.71 24.28C190.137 24.5467 190.65 24.68 191.25 24.68ZM203.243 31.36C202.71 31.36 202.163 31.34 201.603 31.3C201.043 31.26 200.53 31.2067 200.063 31.14V28.44C200.53 28.5067 201.043 28.56 201.603 28.6C202.177 28.6533 202.697 28.68 203.163 28.68C204.03 28.68 204.73 28.58 205.263 28.38C205.81 28.18 206.21 27.8733 206.463 27.46C206.717 27.06 206.843 26.54 206.843 25.9V23.72L207.423 22.44C207.397 23.4133 207.203 24.2467 206.843 24.94C206.497 25.6333 206.01 26.1667 205.383 26.54C204.757 26.9 204.01 27.08 203.143 27.08C202.397 27.08 201.717 26.9467 201.103 26.68C200.503 26.4 199.99 26.0133 199.563 25.52C199.137 25.0267 198.81 24.4533 198.583 23.8C198.357 23.1333 198.243 22.4133 198.243 21.64V21.18C198.243 20.4067 198.363 19.6867 198.603 19.02C198.843 18.3533 199.19 17.7733 199.643 17.28C200.097 16.7867 200.637 16.4067 201.263 16.14C201.89 15.86 202.583 15.72 203.343 15.72C204.223 15.72 204.983 15.9133 205.623 16.3C206.277 16.6867 206.79 17.2533 207.163 18C207.537 18.7467 207.737 19.6467 207.763 20.7L207.323 20.82V16.04H209.863V25.7C209.863 27.0467 209.623 28.1333 209.143 28.96C208.663 29.7867 207.93 30.3933 206.943 30.78C205.97 31.1667 204.737 31.36 203.243 31.36ZM204.143 24.38C204.637 24.38 205.083 24.2733 205.483 24.06C205.883 23.8333 206.197 23.5133 206.423 23.1C206.663 22.6867 206.783 22.1867 206.783 21.6V21.02C206.783 20.4467 206.657 19.9667 206.403 19.58C206.163 19.18 205.843 18.88 205.443 18.68C205.043 18.4667 204.617 18.36 204.163 18.36C203.63 18.36 203.157 18.4867 202.743 18.74C202.33 18.9933 202.01 19.3467 201.783 19.8C201.557 20.2533 201.443 20.7867 201.443 21.4C201.443 22.0267 201.557 22.5667 201.783 23.02C202.023 23.46 202.343 23.8 202.743 24.04C203.157 24.2667 203.623 24.38 204.143 24.38ZM212.554 27V16.04H215.754V27H212.554ZM211.094 18.4V16.04H215.754V18.4H211.094ZM213.794 14.96C213.194 14.96 212.748 14.8067 212.454 14.5C212.174 14.18 212.034 13.78 212.034 13.3C212.034 12.8067 212.174 12.4067 212.454 12.1C212.748 11.78 213.194 11.62 213.794 11.62C214.394 11.62 214.834 11.78 215.114 12.1C215.408 12.4067 215.554 12.8067 215.554 13.3C215.554 13.78 215.408 14.18 215.114 14.5C214.834 14.8067 214.394 14.96 213.794 14.96ZM223.134 27.38C222.201 27.38 221.374 27.22 220.654 26.9C219.947 26.58 219.354 26.1533 218.874 25.62C218.407 25.0733 218.047 24.4667 217.794 23.8C217.554 23.12 217.434 22.4267 217.434 21.72V21.32C217.434 20.5867 217.554 19.8867 217.794 19.22C218.047 18.54 218.407 17.9333 218.874 17.4C219.341 16.8667 219.921 16.4467 220.614 16.14C221.321 15.82 222.121 15.66 223.014 15.66C224.187 15.66 225.174 15.9267 225.974 16.46C226.787 16.98 227.407 17.6667 227.834 18.52C228.261 19.36 228.474 20.28 228.474 21.28V22.36H218.774V20.54H226.534L225.494 21.38C225.494 20.7267 225.401 20.1667 225.214 19.7C225.027 19.2333 224.747 18.88 224.374 18.64C224.014 18.3867 223.561 18.26 223.014 18.26C222.454 18.26 221.981 18.3867 221.594 18.64C221.207 18.8933 220.914 19.2667 220.714 19.76C220.514 20.24 220.414 20.8333 220.414 21.54C220.414 22.1933 220.507 22.7667 220.694 23.26C220.881 23.74 221.174 24.1133 221.574 24.38C221.974 24.6467 222.494 24.78 223.134 24.78C223.721 24.78 224.201 24.6667 224.574 24.44C224.947 24.2133 225.201 23.9333 225.334 23.6H228.274C228.114 24.3333 227.801 24.9867 227.334 25.56C226.867 26.1333 226.281 26.58 225.574 26.9C224.867 27.22 224.054 27.38 223.134 27.38ZM234.154 27.34C232.594 27.34 231.374 27.02 230.494 26.38C229.614 25.74 229.148 24.84 229.094 23.68H231.934C231.988 24.0267 232.194 24.34 232.554 24.62C232.928 24.8867 233.481 25.02 234.214 25.02C234.774 25.02 235.234 24.9267 235.594 24.74C235.968 24.54 236.154 24.26 236.154 23.9C236.154 23.58 236.014 23.3267 235.734 23.14C235.454 22.94 234.954 22.8 234.234 22.72L233.374 22.64C232.054 22.5067 231.061 22.14 230.394 21.54C229.741 20.94 229.414 20.1733 229.414 19.24C229.414 18.4667 229.608 17.82 229.994 17.3C230.381 16.78 230.914 16.3867 231.594 16.12C232.288 15.8533 233.074 15.72 233.954 15.72C235.368 15.72 236.508 16.0333 237.374 16.66C238.241 17.2733 238.694 18.1667 238.734 19.34H235.894C235.841 18.98 235.654 18.68 235.334 18.44C235.014 18.1867 234.541 18.06 233.914 18.06C233.421 18.06 233.028 18.1533 232.734 18.34C232.441 18.5267 232.294 18.78 232.294 19.1C232.294 19.4067 232.421 19.64 232.674 19.8C232.928 19.96 233.341 20.0733 233.914 20.14L234.774 20.22C236.121 20.3667 237.168 20.74 237.914 21.34C238.661 21.94 239.034 22.7467 239.034 23.76C239.034 24.4933 238.834 25.1333 238.434 25.68C238.034 26.2133 237.468 26.6267 236.734 26.92C236.001 27.2 235.141 27.34 234.154 27.34Z" fill="#2C6E49"/>
</svg>
